<svg version="1.1" id="Layer_1" xmlns:x="ns_extend;" xmlns:i="ns_ai;" xmlns:graph="ns_graphs;" xmlns="http://www.w3.org/2000/svg" xmlns:xlink="http://www.w3.org/1999/xlink" x="0px" y="0px" viewBox="0 0 59.1 60" style="enable-background:new 0 0 59.1 60;" xml:space="preserve">
 <style type="text/css">
  .st0{fill:#0A2D82;}
	.st1{fill:#D3D62E;}
	.st2{fill:#FFFFFF;}
 </style>
 <metadata>
  <sfw xmlns="ns_sfw;">
   <slices>
   </slices>
   <sliceSourceBounds bottomLeftOrigin="true" height="60" width="59.1" x="58.5" y="-230.2">
   </sliceSourceBounds>
  </sfw>
 </metadata>
 <g>
  <g>
   <g>
    <path class="st0" d="M59.1,4V56c-9.4,2.6-19.3,4-29.6,4S9.4,58.6,0,56V4c9.4-2.6,19.3-4,29.5-4C39.8,0,49.7,1.4,59.1,4z">
    </path>
    <path class="st1" d="M35.7,21.4c0,3.3-2.7,6-5.9,6c-3.3,0-5.9-2.7-5.9-6s2.7-6,5.9-6C33,15.3,35.7,18,35.7,21.4z">
    </path>
    <path class="st1" d="M43,21.4h-3.6c-0.3,0.1-0.6,0.3-0.7,0.6c-0.3,4.7-4.2,8.5-8.9,8.5c-4.9,0-9-4.1-9-9.1c0-4.8,3.6-8.7,8.2-9.1
				v0c0.4,0,0.8-0.4,0.8-0.8V8.1c0-0.4-0.3-0.8-0.8-0.8v0c-7.3,0.4-13.1,6.6-13.1,14.1c0,7.8,6.2,14.1,13.9,14.1
				c7.4,0,13.5-5.9,13.9-13.4C43.6,21.7,43.3,21.4,43,21.4z">
    </path>
    <path class="st2" d="M15.2,47.7c0-0.6,0-1.3,0-1.9h0c-0.3,0.4-0.6,0.7-1.1,1.2l-1.4,1.4h-0.1l-1.4-1.4c-0.5-0.4-0.8-0.8-1.1-1.2
				h0c0,0.6,0,1.3,0,1.9v3.6H7.5v-11h0.3l2.8,2.6c0.4,0.4,1.4,1.3,2,2.1h0c0.6-0.7,1.6-1.7,2.1-2.1l2.7-2.6h0.3v11h-2.6V47.7
				L15.2,47.7z">
    </path>
    <path class="st2" d="M22.9,47.8h2.4l-0.1-0.3c-0.3-0.7-0.7-1.5-1.1-2.6h0c-0.4,1.1-0.8,1.9-1.1,2.6L22.9,47.8z M26.3,49.9h-4.4
				l-0.7,1.4h-2.8l5.5-11h0.6l5.5,11H27L26.3,49.9z">
    </path>
    <path class="st2" d="M39.1,50.2c-1,0.9-2.2,1.4-3.7,1.4c-3.3,0-5.5-2.5-5.5-5.7c0-3.4,2.3-5.6,5.3-5.6c1.6,0,2.8,0.6,3.8,1.4
				l-1.5,1.9c-0.6-0.5-1.3-0.9-2.2-0.9c-1.7,0-2.8,1.4-2.8,3.2c0,1.9,1,3.2,2.8,3.2c0.9,0,1.6-0.3,2.2-0.9L39.1,50.2z">
    </path>
    <path class="st2" d="M43,40.7h-2.6v10.7H43V40.7z">
    </path>
    <path class="st2" d="M47.9,43.1v2.5h4v2.3h-4v3.5h-2.6V40.7H53l-0.5,2.4H47.9z">
    </path>
   </g>
  </g>
 </g>
</svg>