<?xml version="1.0" encoding="UTF-8" standalone="no"?>
<!-- Created with Inkscape (http://www.inkscape.org/) -->

<svg
   xmlns:dc="http://purl.org/dc/elements/1.1/"
   xmlns:cc="http://creativecommons.org/ns#"
   xmlns:rdf="http://www.w3.org/1999/02/22-rdf-syntax-ns#"
   xmlns:svg="http://www.w3.org/2000/svg"
   xmlns="http://www.w3.org/2000/svg"
   xmlns:sodipodi="http://sodipodi.sourceforge.net/DTD/sodipodi-0.dtd"
   xmlns:inkscape="http://www.inkscape.org/namespaces/inkscape"
   width="216.79367"
   height="98.942558"
   id="svg3379"
   version="1.1"
   inkscape:version="0.48.3.1 r9886"
   sodipodi:docname="Documento nuevo 4">
  <defs
     id="defs3" />
  <sodipodi:namedview
     id="base"
     pagecolor="#ffffff"
     bordercolor="#666666"
     borderopacity="1.0"
     inkscape:pageopacity="0.0"
     inkscape:pageshadow="2"
     inkscape:zoom="2.4"
     inkscape:cx="98.827503"
     inkscape:cy="74.768265"
     inkscape:document-units="mm"
     inkscape:current-layer="layer1"
     showgrid="false"
     units="mm"
     fit-margin-left="0.1"
     fit-margin-top="0.1"
     fit-margin-right="0.1"
     fit-margin-bottom="0.1"
     inkscape:window-width="1360"
     inkscape:window-height="708"
     inkscape:window-x="-4"
     inkscape:window-y="-4"
     inkscape:window-maximized="1" />
  <metadata
     id="metadata3383">
    <rdf:RDF>
      <cc:Work
         rdf:about="">
        <dc:format>image/svg+xml</dc:format>
        <dc:type
           rdf:resource="http://purl.org/dc/dcmitype/StillImage" />
        <dc:title></dc:title>
      </cc:Work>
    </rdf:RDF>
  </metadata>
  <g
     inkscape:label="Layer 1"
     inkscape:groupmode="layer"
     id="layer1"
     transform="translate(-37.436506,-34.367296)">
    <g
       id="g3097"
       transform="matrix(1.25,0,0,-1.25,120.04834,43.067877)"
       style="fill:#0044aa">
      <path
         inkscape:connector-curvature="0"
         d="m 0,0 0,0.913 4.839,0 0,-5.846 -0.911,0 0,1.932 c -0.786,-1.35 -1.996,-2.231 -4.227,-2.231 -2.86,0 -4.949,1.996 -4.949,6.019 0,3.315 1.665,5.89 5.232,5.89 2.372,0 4.243,-1.161 4.729,-3.582 l -1.099,0 C 3.237,4.793 1.743,5.767 0.063,5.767 c -2.986,0 -4.243,-2.2 -4.243,-5.405 0,-2.499 1.508,-4.683 4.102,-4.683 1.224,0 2.67,0.519 3.408,1.981 0.362,0.706 0.472,1.492 0.487,2.34"
         style="fill:#0044aa;fill-opacity:1;fill-rule:nonzero;stroke:none"
         id="path3099" />
    </g>
    <g
       id="g3101"
       transform="matrix(1.25,0,0,-1.25,130.37709,49.234127)"
       style="fill:#0044aa">
      <path
         inkscape:connector-curvature="0"
         d="m 0,0 -0.943,0 0,8.139 0.943,0 0,-1.524 0.031,0 C 0.55,7.919 1.32,8.358 2.686,8.358 l 0,-1.021 C 0.566,7.384 0,5.815 0,3.991"
         style="fill:#0044aa;fill-opacity:1;fill-rule:nonzero;stroke:none"
         id="path3103" />
    </g>
    <g
       id="g3105"
       transform="matrix(1.25,0,0,-1.25,134.65959,44.146627)"
       style="fill:#0044aa">
      <path
         inkscape:connector-curvature="0"
         d="M 0,0 C 0,2.372 1.257,4.288 3.772,4.288 6.316,4.288 7.543,2.388 7.543,0 7.543,-2.577 6.049,-4.289 3.772,-4.289 1.697,-4.259 0,-2.845 0,0 z M 3.772,3.441 C 1.792,3.441 1.006,1.759 1.006,0 c 0,-2.027 0.958,-3.441 2.766,-3.441 1.98,0 2.764,1.696 2.764,3.441 C 6.52,1.916 5.767,3.441 3.772,3.441"
         style="fill:#0044aa;fill-opacity:1;fill-rule:nonzero;stroke:none"
         id="path3107" />
    </g>
    <g
       id="g3109"
       transform="matrix(1.25,0,0,-1.25,153.13959,39.061627)"
       style="fill:#0044aa">
      <path
         inkscape:connector-curvature="0"
         d="m 0,0 0.944,0 0,-8.139 -0.944,0 0,1.132 c -0.504,-0.567 -1.194,-1.351 -2.624,-1.351 -2.168,0 -2.891,1.303 -2.891,3.001 l 0,5.357 0.942,0 0,-5.342 c 0,-1.398 0.614,-2.168 2.09,-2.168 1.558,0 2.483,1.288 2.483,3.08"
         style="fill:#0044aa;fill-opacity:1;fill-rule:nonzero;stroke:none"
         id="path3111" />
    </g>
    <g
       id="g3113"
       transform="matrix(1.25,0,0,-1.25,158.48084,53.240377)"
       style="fill:#0044aa">
      <path
         inkscape:connector-curvature="0"
         d="m 0,0 -0.942,0 0,11.344 0.942,0 0,-1.429 0.031,0 c 0.551,1.067 1.792,1.648 2.831,1.648 2.623,0 3.673,-1.868 3.673,-4.274 C 6.535,5.012 5.387,2.986 2.906,2.986 1.759,2.986 0.596,3.52 0,4.51 L 0,0 z m 2.751,3.834 c 1.947,0 2.858,1.649 2.778,3.692 -0.014,2.043 -1.191,3.19 -2.778,3.19 C 0.975,10.716 0,9.207 0,7.242 0,5.405 1.036,3.834 2.751,3.834"
         style="fill:#0044aa;fill-opacity:1;fill-rule:nonzero;stroke:none"
         id="path3115" />
    </g>
    <g
       id="g3117"
       transform="matrix(1.25,0,0,-1.25,169.88959,44.424127)"
       style="fill:#0044aa">
      <path
         inkscape:connector-curvature="0"
         d="m 0,0 c -0.016,-1.758 0.929,-3.22 2.734,-3.22 1.227,0 2.183,0.676 2.469,1.87 l 1.052,0 C 5.782,-2.889 4.81,-4.068 2.734,-4.068 c -2.609,0 -3.739,1.853 -3.739,4.258 0,2.373 1.415,4.321 3.739,4.321 C 4.967,4.511 6.332,2.924 6.316,0 L 0,0 z M 5.31,0.786 C 5.31,2.373 4.433,3.662 2.734,3.662 1.07,3.662 0.189,2.327 0,0.786"
         style="fill:#0044aa;fill-opacity:1;fill-rule:nonzero;stroke:none"
         id="path3119" />
    </g>
    <g
       id="g3121"
       transform="matrix(1.25,0,0,-1.25,42.850837,69.150381)"
       style="fill:#0044aa">
      <path
         inkscape:connector-curvature="0"
         d="m 0,0 1.018,-0.024 1.503,0.047 c 1.067,0.05 2.472,-0.266 3.491,-0.775 1.042,-0.534 1.527,-1.164 2.109,-2.715 0.508,-1.382 0.654,-1.964 0.654,-2.885 0,-0.921 -0.097,-2.158 -0.218,-3.272 -0.145,-1.043 -0.315,-1.528 -1.018,-2.618 -1.14,-1.747 -2.667,-2.667 -4.461,-2.667 -0.145,0 -0.339,0 -0.581,0.025 -0.194,0 -0.388,0.023 -0.485,0.023 -0.728,0 -1.091,-0.387 -1.042,-1.162 l 0.048,-1.068 0.024,-1.018 0.048,-0.849 c -0.024,-0.557 -0.339,-0.848 -0.872,-0.848 l -1.915,0.072 c -0.218,0 -0.51,-0.023 -0.898,-0.072 -0.218,-0.025 -0.435,-0.049 -0.606,-0.049 -0.508,0 -0.799,0.291 -0.799,0.777 l 0.024,0.751 c 0.084,3.448 0.058,6.897 0,10.351 l 0.049,2.473 c 0,0.316 0,0.582 -0.025,1.357 0,0.46 -0.024,0.873 -0.048,1.527 -0.024,0.582 -0.024,0.751 -0.024,0.946 -0.024,0.145 -0.024,0.314 -0.024,0.387 0,0.8 0.581,1.262 1.527,1.237 L -1.504,-0.097 0,0 z m 3.515,-6.232 c 0,0.025 -0.048,0.22 -0.146,0.511 -0.217,0.678 -0.678,1.067 -1.285,1.067 -0.339,0 -0.751,-0.267 -0.896,-0.558 C 1.066,-5.456 0.97,-6.086 0.993,-6.522 L 1.018,-7.395 0.97,-8.678 c 0,-0.051 0.048,-0.219 0.144,-0.462 0.219,-0.508 0.607,-0.8 1.019,-0.8 0.752,0 1.358,0.68 1.358,1.503 l -0.024,1.116"
         style="fill:#0044aa;fill-opacity:1;fill-rule:nonzero;stroke:none"
         id="path3123" />
    </g>
    <g
       id="g3125"
       transform="matrix(1.25,0,0,-1.25,59.938337,74.666631)"
       style="fill:#0044aa">
      <path
         inkscape:connector-curvature="0"
         d="m 0,0 c 0.679,0 0.945,-0.268 0.945,-0.897 0,-0.168 0,-0.63 -0.048,-1.139 0,-0.364 -0.024,-0.751 -0.024,-1.188 l 0.024,-2.812 -0.048,-1.139 0.048,-1.601 -0.024,-1.115 0,-4.265 c 0,-1.116 -0.122,-1.237 -1.018,-1.237 l -0.509,0 c -0.437,0.024 -0.752,0.024 -0.873,0.024 l -1.455,-0.049 c -0.63,-0.024 -0.897,0.364 -0.849,1.212 l 0.098,2.037 -0.049,2.278 c -0.024,0.316 0,0.702 0.025,1.14 0,0.363 0.024,0.728 0.024,1.09 0.024,0.461 0.024,0.533 0.024,0.752 l -0.073,2.643 0.049,1.671 -0.024,1.116 c -0.025,0.486 0.048,0.97 0.145,1.139 0.121,0.196 0.46,0.34 0.824,0.34 L 0,0 z M -1.285,4.315 0.072,4.363 C 0.315,4.363 0.606,4.218 0.775,3.976 0.873,3.831 0.897,3.661 0.921,3.078 L 0.97,2.133 C 0.994,1.406 0.606,0.994 -0.048,1.017 l -2.522,0 c -0.897,0 -1.115,0.268 -1.09,1.336 l 0,1.017 c -0.025,0.461 0.048,0.631 0.315,0.8 0.217,0.17 0.436,0.243 0.654,0.217 L -1.819,4.34"
         style="fill:#0044aa;fill-opacity:1;fill-rule:nonzero;stroke:none"
         id="path3127" />
    </g>
    <g
       id="g3129"
       transform="matrix(1.25,0,0,-1.25,76.269587,92.361631)"
       style="fill:#0044aa">
      <path
         inkscape:connector-curvature="0"
         d="m 0,0 c 0.024,-0.535 -0.267,-0.85 -0.946,-1.018 -0.775,-0.195 -0.969,-0.244 -1.817,-0.293 -0.315,-0.023 -0.582,-0.023 -1.116,-0.047 -0.484,-0.024 -0.606,-0.024 -0.751,-0.024 -1.673,0 -3.249,0.339 -3.855,0.847 -0.558,0.461 -1.163,0.994 -1.405,1.31 -0.243,0.242 -0.388,0.534 -0.606,1.187 -0.388,1.091 -0.412,1.334 -0.51,2.739 l -0.096,1.357 0.072,1.746 c 0.024,0.534 0.048,1.068 0.073,1.601 0.073,1.333 0.679,2.546 1.721,3.418 0.897,0.776 2.472,1.309 3.903,1.309 1.576,0 3.297,-0.63 4.169,-1.552 0.921,-0.921 1.479,-2.544 1.479,-4.217 0,-0.266 0,-0.486 -0.024,-0.825 C 0.267,7.418 0.267,7.32 0.267,7.271 L 0.291,5.962 C 0.291,5.696 0.194,5.431 0.024,5.163 -0.194,4.872 -0.486,4.653 -0.679,4.653 l -1.139,0.048 c -0.025,0 -0.17,0 -0.63,-0.048 -0.122,0 -0.291,-0.025 -0.413,-0.025 -0.145,-0.023 -0.315,-0.023 -0.509,-0.023 -0.242,0 -0.485,0 -0.702,0.023 -0.291,0.025 -0.582,0.05 -0.873,0.05 -0.388,0.023 -0.436,0.023 -0.606,0.023 -0.534,0 -0.946,-0.291 -0.946,-0.703 0,-0.75 0.485,-1.381 1.237,-1.6 0.46,-0.143 0.945,-0.217 1.405,-0.217 0.63,0 1.504,0.121 1.747,0.242 l 0.823,0.363 c 0.17,0.074 0.339,0.122 0.509,0.122 C -0.34,2.908 0,2.472 0,1.89 L -0.024,0.896 0,0 z m -4.218,9.452 c -0.025,0.68 -0.558,1.239 -1.188,1.239 -0.46,0 -0.824,-0.291 -0.994,-0.801 L -6.522,9.452 C -6.666,8.968 -6.69,8.847 -6.69,8.556 c 0,-0.63 0.193,-0.848 0.775,-0.848 l 0.582,0 c 0.097,0 0.193,0.025 0.217,0 l 0.389,0 c 0.315,-0.025 0.557,0.241 0.533,0.557 l 0,0.582"
         style="fill:#0044aa;fill-opacity:1;fill-rule:nonzero;stroke:none"
         id="path3131" />
    </g>
    <g
       id="g3133"
       transform="matrix(1.25,0,0,-1.25,83.842087,89.150381)"
       style="fill:#0044aa">
      <path
         inkscape:connector-curvature="0"
         d="m 0,0 0,-0.825 -0.048,-1.114 c 0,-0.147 0,-0.339 0.024,-0.607 0.024,-0.193 0.048,-0.339 0.048,-0.532 0,-0.631 -0.194,-0.728 -1.334,-0.728 l -0.63,0 c -0.145,0.024 -0.267,0.024 -0.412,0.024 l -0.411,0 c -0.195,0 -0.365,0 -0.486,-0.024 -0.315,-0.024 -0.533,-0.024 -0.654,-0.024 -0.46,0 -0.775,0.29 -0.775,0.726 0,0.146 0.024,0.34 0.048,0.558 0.024,0.219 0.048,0.412 0.048,1.043 l 0,1.77 -0.048,0.848 0.169,2.958 c 0,0.121 0,0.289 -0.048,0.532 -0.048,0.341 -0.073,0.63 -0.073,0.85 l 0.121,3.588 c 0,0.072 0,0.193 -0.024,0.386 -0.049,0.413 -0.049,0.436 -0.049,1.093 0,0.798 0.316,1.235 0.922,1.235 0.169,0 0.509,-0.048 0.823,-0.096 0.171,-0.024 0.316,-0.05 0.413,-0.05 l 2.061,0.073 c 0.218,0 0.46,-0.266 0.485,-0.509 0.024,-0.291 0.048,-0.364 0.193,-0.364 0.121,0 0.171,0.049 0.412,0.293 0.437,0.459 0.921,0.677 1.479,0.677 0.412,0 0.655,-0.268 0.655,-0.702 C 2.909,10.86 2.885,10.618 2.86,10.301 2.836,9.89 2.836,9.502 2.836,9.09 l 0,-0.848 C 2.86,7.708 2.86,7.272 2.86,6.957 2.86,6.376 2.593,5.964 2.182,5.964 c -0.05,0 -0.146,0 -0.267,0.023 C 1.817,6.01 1.745,6.01 1.648,6.01 0.799,6.01 0.048,5.139 0.048,4.146 L 0.072,2.012"
         style="fill:#0044aa;fill-opacity:1;fill-rule:nonzero;stroke:none"
         id="path3135" />
    </g>
    <g
       id="g3137"
       transform="matrix(1.25,0,0,-1.25,94.415837,89.150381)"
       style="fill:#0044aa">
      <path
         inkscape:connector-curvature="0"
         d="m 0,0 0,-0.825 -0.048,-1.114 c 0,-0.147 0,-0.339 0.024,-0.607 0.024,-0.193 0.048,-0.339 0.048,-0.532 0,-0.631 -0.194,-0.728 -1.333,-0.728 l -0.631,0 c -0.145,0.024 -0.266,0.024 -0.412,0.024 l -0.411,0 c -0.195,0 -0.365,0 -0.486,-0.024 -0.315,-0.024 -0.533,-0.024 -0.654,-0.024 -0.46,0 -0.775,0.29 -0.775,0.726 0,0.146 0.024,0.34 0.048,0.558 0.024,0.219 0.048,0.412 0.048,1.043 l 0,1.77 -0.048,0.848 0.169,2.958 c 0,0.121 0,0.289 -0.048,0.532 -0.048,0.341 -0.073,0.63 -0.073,0.85 l 0.121,3.588 c 0,0.072 0,0.193 -0.024,0.386 -0.049,0.413 -0.049,0.436 -0.049,1.093 0,0.798 0.316,1.235 0.922,1.235 0.169,0 0.509,-0.048 0.825,-0.096 0.169,-0.024 0.314,-0.05 0.411,-0.05 l 2.061,0.073 c 0.218,0 0.461,-0.266 0.485,-0.509 0.024,-0.291 0.048,-0.364 0.193,-0.364 0.121,0 0.171,0.049 0.412,0.293 0.437,0.459 0.921,0.677 1.479,0.677 0.412,0 0.655,-0.268 0.655,-0.702 C 2.909,10.86 2.885,10.618 2.86,10.301 2.836,9.89 2.836,9.502 2.836,9.09 l 0,-0.848 C 2.86,7.708 2.86,7.272 2.86,6.957 2.86,6.376 2.594,5.964 2.182,5.964 c -0.05,0 -0.145,0 -0.267,0.023 C 1.818,6.01 1.745,6.01 1.648,6.01 0.799,6.01 0.048,5.139 0.048,4.146 L 0.073,2.012"
         style="fill:#0044aa;fill-opacity:1;fill-rule:nonzero;stroke:none"
         id="path3139" />
    </g>
    <g
       id="g3141"
       transform="matrix(1.25,0,0,-1.25,112.68584,92.361631)"
       style="fill:#0044aa">
      <path
         inkscape:connector-curvature="0"
         d="m 0,0 c 0.025,-0.535 -0.267,-0.85 -0.945,-1.018 -0.775,-0.195 -0.97,-0.244 -1.817,-0.293 -0.315,-0.023 -0.582,-0.023 -1.117,-0.047 -0.484,-0.024 -0.606,-0.024 -0.751,-0.024 -1.672,0 -3.248,0.339 -3.854,0.847 -0.558,0.461 -1.163,0.994 -1.406,1.31 -0.242,0.242 -0.387,0.534 -0.606,1.187 -0.387,1.091 -0.412,1.334 -0.509,2.739 l -0.097,1.357 0.073,1.746 c 0.024,0.534 0.049,1.068 0.073,1.601 0.073,1.333 0.679,2.546 1.721,3.418 0.897,0.776 2.472,1.309 3.903,1.309 1.575,0 3.297,-0.63 4.169,-1.552 0.921,-0.921 1.479,-2.544 1.479,-4.217 0,-0.266 0,-0.486 -0.025,-0.825 C 0.268,7.418 0.268,7.32 0.268,7.271 L 0.291,5.962 C 0.291,5.696 0.195,5.431 0.025,5.163 -0.194,4.872 -0.484,4.653 -0.678,4.653 l -1.14,0.048 c -0.024,0 -0.169,0 -0.629,-0.048 -0.122,0 -0.291,-0.025 -0.413,-0.025 -0.145,-0.023 -0.315,-0.023 -0.508,-0.023 -0.243,0 -0.486,0 -0.704,0.023 -0.291,0.025 -0.582,0.05 -0.873,0.05 -0.387,0.023 -0.436,0.023 -0.606,0.023 -0.533,0 -0.945,-0.291 -0.945,-0.703 0,-0.75 0.485,-1.381 1.236,-1.6 0.46,-0.143 0.946,-0.217 1.406,-0.217 0.631,0 1.503,0.121 1.746,0.242 l 0.824,0.363 c 0.17,0.074 0.339,0.122 0.509,0.122 C -0.338,2.908 0,2.472 0,1.89 L -0.024,0.896 0,0 z m -4.217,9.452 c -0.025,0.68 -0.559,1.239 -1.188,1.239 -0.461,0 -0.824,-0.291 -0.995,-0.801 L -6.52,9.452 C -6.665,8.968 -6.69,8.847 -6.69,8.556 c 0,-0.63 0.194,-0.848 0.776,-0.848 l 0.582,0 c 0.096,0 0.193,0.025 0.217,0 l 0.389,0 c 0.315,-0.025 0.556,0.241 0.533,0.557 l 0,0.582"
         style="fill:#0044aa;fill-opacity:1;fill-rule:nonzero;stroke:none"
         id="path3143" />
    </g>
    <g
       id="g3145"
       transform="matrix(1.25,0,0,-1.25,131.57834,83.604131)"
       style="fill:#0044aa">
      <path
         inkscape:connector-curvature="0"
         d="m 0,0 c 0.072,-0.121 0.169,-0.218 0.243,-0.218 0.193,0 0.339,0.46 0.339,1.018 l 0,0.314 c 0,0.437 0.267,0.753 0.63,0.753 0.146,0 0.291,-0.025 0.484,-0.049 0.316,-0.049 0.703,-0.072 1.117,-0.072 0.193,0 0.363,0.023 0.532,0.023 0.219,0.024 0.413,0.049 0.509,0.049 0.388,0 0.679,-0.242 0.679,-0.558 0,-0.485 -0.146,-1.672 -0.267,-2.278 C 4.024,-2.134 3.66,-2.934 2.981,-3.952 2.739,-4.316 2.666,-4.437 2.666,-4.534 c 0,-0.073 0.048,-0.219 0.147,-0.364 0.024,-0.048 0.096,-0.169 0.168,-0.339 0.121,-0.241 0.268,-0.485 0.413,-0.727 l 0.46,-0.727 0.364,-0.728 c 0.097,-0.17 0.145,-0.339 0.145,-0.436 0,-0.244 -0.217,-0.363 -0.703,-0.363 l -0.775,0 -1.091,0.024 c -0.146,0 -0.388,0 -0.728,-0.024 -0.241,0 -0.484,-0.024 -0.654,-0.024 -0.268,0 -0.34,0.048 -0.607,0.387 l -0.241,0.291 c -0.048,0.049 -0.098,0.097 -0.147,0.097 -0.048,0 -0.12,-0.025 -0.192,-0.072 -0.364,-0.196 -0.97,-0.436 -1.576,-0.655 -0.558,-0.194 -1.09,-0.266 -1.795,-0.266 -1.841,0 -3.102,0.582 -4.169,1.962 -1.017,1.309 -1.43,2.498 -1.43,4.194 0,2.158 0.654,3.564 2.206,4.752 l 0.727,0.582 c 0.315,0.242 0.533,0.557 0.533,0.801 0,0.168 0.024,0.145 -0.363,0.822 -0.364,0.632 -0.559,1.505 -0.559,2.451 0,1.404 0.414,2.568 1.19,3.344 0.775,0.775 2.107,1.261 3.393,1.261 2.448,0 4.266,-1.794 4.266,-4.194 0,-1.891 -0.703,-3.492 -2.182,-5.044 -0.363,-0.362 -0.46,-0.509 -0.46,-0.702 -0.025,-0.073 0,-0.146 0.048,-0.218 L -0.775,1.308 0,0 z m -3.564,-2.304 -0.34,0.704 -0.339,0.653 c -0.072,0.146 -0.144,0.243 -0.194,0.243 -0.048,0 -0.291,-0.218 -0.411,-0.412 -0.244,-0.34 -0.364,-0.703 -0.364,-1.116 0,-0.386 0.194,-0.873 0.484,-1.212 0.317,-0.386 0.68,-0.533 1.383,-0.533 0.315,0 0.582,0.073 0.582,0.194 0,0 -0.025,0.026 -0.05,0.05 -0.048,0.121 -0.096,0.192 -0.12,0.265 l -0.316,0.558 -0.315,0.606 z m 0.073,9.285 c 0,-0.267 0.073,-0.582 0.218,-0.921 0.145,-0.339 0.291,-0.533 0.412,-0.533 0.098,0 0.437,0.338 0.63,0.631 0.219,0.339 0.34,0.678 0.34,0.993 0,0.509 -0.34,0.897 -0.775,0.897 -0.462,0 -0.825,-0.46 -0.825,-1.067"
         style="fill:#0044aa;fill-opacity:1;fill-rule:nonzero;stroke:none"
         id="path3147" />
    </g>
    <g
       id="g3149"
       transform="matrix(1.25,0,0,-1.25,149.11084,72.150381)"
       style="fill:#0044aa">
      <path
         inkscape:connector-curvature="0"
         d="m 0,0 0.193,-2.109 c 0.025,-0.29 0.025,-0.655 0.05,-1.139 0,-1.528 0.024,-1.891 0.169,-2.982 0.097,-0.824 0.071,-0.63 0.17,-1.892 0,-0.192 0.024,-0.436 0.047,-0.75 0.05,-0.388 0.072,-0.607 0.072,-0.727 0.025,-0.34 0.148,-0.606 0.292,-0.606 0.145,0 0.268,0.243 0.291,0.606 0,0.096 0,0.216 0.049,0.58 0.025,0.122 0.048,0.268 0.072,0.389 0.049,0.316 0.074,0.63 0.097,0.944 0.05,0.437 0.073,0.753 0.097,0.899 l 0.195,0.8 c 0,0.048 0.072,0.387 0.144,0.848 0.049,0.363 0.074,0.629 0.099,0.727 l 0.047,0.848 0.122,1.212 0.313,1.673 0.122,0.921 0.099,1.043 c 0.073,0.8 0.363,1.164 0.92,1.14 L 4.17,2.4 5.793,2.351 6.277,2.328 7.565,2.4 C 7.854,2.4 8.169,1.989 8.169,1.553 8.169,1.237 8.097,0.921 7.878,0.267 7.587,-0.727 7.491,-1.164 7.394,-1.939 L 7.296,-2.957 7.175,-3.684 7.078,-4.291 6.981,-4.8 6.884,-5.26 6.667,-5.939 C 6.593,-6.133 6.521,-6.497 6.449,-6.982 6.4,-7.273 6.324,-7.686 6.205,-8.217 6.084,-8.921 5.961,-9.479 5.914,-9.794 5.623,-11.395 5.549,-11.661 5.236,-12.849 5.164,-13.138 5.041,-13.527 4.945,-13.842 4.701,-14.715 4.579,-15.199 4.385,-16 c -0.24,-1.114 -0.484,-1.405 -1.234,-1.405 -0.122,0 -0.316,0 -0.51,0.023 -0.363,0.025 -0.8,0.025 -1.333,0.025 l -2.036,0 -0.993,-0.025 c -0.607,0 -0.753,0.243 -1.043,1.721 l -0.339,1.771 c -0.049,0.168 -0.073,0.339 -0.146,0.97 -0.048,0.193 -0.072,0.411 -0.097,0.63 -0.048,0.387 -0.121,0.823 -0.194,1.284 l -0.412,2.353 -0.243,1.987 c -0.072,0.459 -0.168,0.994 -0.291,1.6 -0.048,0.339 -0.12,0.703 -0.192,1.043 -0.049,0.386 -0.074,0.507 -0.098,0.725 l -0.17,1.989 c -0.072,0.655 -0.146,1.212 -0.267,1.696 -0.096,0.461 -0.145,0.801 -0.145,1.067 0,0.219 0.121,0.51 0.292,0.679 0.12,0.17 0.388,0.242 0.823,0.242 l 0.436,0 1.843,-0.024 c 0.096,0 0.29,0 0.582,0.024 0.121,0.025 0.217,0.025 0.363,0.025 0.63,0 0.995,-0.364 0.995,-0.995 L -0.049,0.364"
         style="fill:#0044aa;fill-opacity:1;fill-rule:nonzero;stroke:none"
         id="path3151" />
    </g>
    <g
       id="g3153"
       transform="matrix(1.25,0,0,-1.25,165.77334,79.696631)"
       style="fill:#0044aa">
      <path
         inkscape:connector-curvature="0"
         d="m 0,0 c -0.122,0.025 -0.266,0.025 -0.388,0.025 -0.606,0 -1.041,-0.121 -1.939,-0.51 -0.266,-0.097 -0.535,-0.17 -0.703,-0.17 -0.461,0 -0.776,0.509 -0.75,1.165 l 0.024,1.356 0,0.8 c -0.024,0.607 0.29,0.825 1.598,1.043 L -0.509,4 c 0.484,0.097 0.946,0.123 1.55,0.123 1.336,0 2.621,-0.293 3.59,-0.802 1.211,-0.63 1.624,-1.382 1.624,-3.006 l 0,-1.09 C 6.23,-1.285 6.208,-1.649 6.208,-1.819 l 0.071,-2.06 0,-2.909 -0.096,-2.255 c 0,-0.193 0.025,-0.483 0.047,-0.872 0.025,-0.194 0.049,-0.337 0.049,-0.533 0,-0.654 -0.34,-0.921 -1.162,-0.921 -0.266,0 -0.535,0 -0.826,0.024 -0.217,0.024 -0.363,0.024 -0.46,0.024 l -1.139,-0.048 c -0.168,0 -0.365,0.122 -0.412,0.291 l -0.075,0.17 c -0.022,0.097 -0.094,0.169 -0.169,0.169 -0.047,0 -0.119,-0.048 -0.218,-0.145 -0.508,-0.461 -1.308,-0.679 -2.447,-0.679 -1.31,0 -2.28,0.436 -3.104,1.431 -0.701,0.798 -1.017,1.696 -0.992,2.812 l 0,0.653 c 0.025,1.673 0.121,2.109 0.509,2.813 0.483,0.824 0.945,1.285 1.623,1.575 l 0.873,0.389 c 0.726,0.314 0.995,0.386 1.429,0.386 0.169,0 0.557,-0.024 0.945,-0.047 l 0.56,-0.048 c 0.121,0 0.24,-0.025 0.291,-0.025 0.313,0 0.509,0.218 0.509,0.582 0,0.484 -0.291,0.921 -0.607,0.946 L 0.679,-0.048 0,0 z m -0.219,-6.545 c 0,-0.848 0.485,-1.479 1.117,-1.479 0.653,0 1.138,0.679 1.138,1.65 0,0.968 -0.363,1.502 -1.041,1.502 -0.704,0 -1.214,-0.68 -1.214,-1.673"
         style="fill:#0044aa;fill-opacity:1;fill-rule:nonzero;stroke:none"
         id="path3155" />
    </g>
    <g
       id="g3157"
       transform="matrix(1.25,0,0,-1.25,175.01209,83.424131)"
       style="fill:#0044aa">
      <path
         inkscape:connector-curvature="0"
         d="m 0,0 c 0.025,1.358 0.099,1.819 0.462,3.031 0.485,1.648 0.97,2.35 2.158,3.201 0.97,0.7 2.108,1.017 3.541,1.017 1.257,0 1.573,-0.193 1.573,-0.994 0,-0.194 0,-0.412 -0.022,-0.63 C 7.686,5.139 7.661,4.8 7.661,4.557 L 7.712,3.37 C 7.734,2.57 7.418,2.231 6.692,2.231 L 6.351,2.255 c -1.113,0 -1.67,-0.946 -1.648,-2.908 l 0,-0.389 c 0,-1.066 0.098,-1.48 0.51,-1.988 0.412,-0.51 0.728,-0.678 1.261,-0.678 l 0.437,0 c 0.485,0 0.775,-0.291 0.775,-0.801 0,-0.12 0,-0.242 -0.025,-0.411 C 7.614,-5.308 7.614,-5.696 7.614,-6.084 l 0.022,-1.382 c 0.025,-0.727 -0.362,-1.066 -1.26,-1.066 -0.312,0 -1.041,0.024 -1.866,0.071 -0.873,0.05 -2.059,0.511 -2.665,1.091 -0.535,0.487 -1.019,1.359 -1.554,2.789 -0.266,0.752 -0.338,1.381 -0.313,3.103"
         style="fill:#0044aa;fill-opacity:1;fill-rule:nonzero;stroke:none"
         id="path3159" />
    </g>
    <g
       id="g3161"
       transform="matrix(1.25,0,0,-1.25,191.28459,79.696631)"
       style="fill:#0044aa">
      <path
         inkscape:connector-curvature="0"
         d="m 0,0 c -0.121,0.025 -0.269,0.025 -0.387,0.025 -0.607,0 -1.045,-0.121 -1.942,-0.51 -0.266,-0.097 -0.533,-0.17 -0.704,-0.17 -0.457,0 -0.776,0.509 -0.751,1.165 l 0.025,1.356 0,0.8 c -0.025,0.607 0.291,0.825 1.601,1.043 L -0.51,4 c 0.485,0.097 0.945,0.123 1.551,0.123 1.333,0 2.618,-0.293 3.588,-0.802 1.213,-0.63 1.623,-1.382 1.623,-3.006 l 0,-1.09 C 6.23,-1.285 6.205,-1.649 6.205,-1.819 l 0.072,-2.06 0,-2.909 -0.097,-2.255 c 0,-0.193 0.025,-0.483 0.05,-0.872 0.022,-0.194 0.047,-0.337 0.047,-0.533 0,-0.654 -0.338,-0.921 -1.163,-0.921 -0.266,0 -0.535,0 -0.823,0.024 -0.219,0.024 -0.366,0.024 -0.462,0.024 L 2.69,-11.369 c -0.169,0 -0.363,0.122 -0.413,0.291 l -0.072,0.17 c -0.025,0.097 -0.097,0.169 -0.169,0.169 -0.05,0 -0.122,-0.048 -0.218,-0.145 -0.51,-0.461 -1.311,-0.679 -2.45,-0.679 -1.307,0 -2.279,0.436 -3.101,1.431 -0.704,0.798 -1.02,1.696 -0.995,2.812 l 0,0.653 c 0.025,1.673 0.122,2.109 0.509,2.813 0.486,0.824 0.945,1.285 1.624,1.575 l 0.873,0.389 c 0.728,0.314 0.994,0.386 1.431,0.386 0.17,0 0.557,-0.024 0.945,-0.047 l 0.557,-0.048 c 0.121,0 0.24,-0.025 0.291,-0.025 0.316,0 0.509,0.218 0.509,0.582 0,0.484 -0.291,0.921 -0.607,0.946 L 0.676,-0.048 0,0 z m -0.219,-6.545 c 0,-0.848 0.485,-1.479 1.114,-1.479 0.657,0 1.141,0.679 1.141,1.65 0,0.968 -0.363,1.502 -1.041,1.502 -0.707,0 -1.214,-0.68 -1.214,-1.673"
         style="fill:#0044aa;fill-opacity:1;fill-rule:nonzero;stroke:none"
         id="path3163" />
    </g>
    <g
       id="g3165"
       transform="matrix(1.25,0,0,-1.25,214.33959,83.879131)"
       style="fill:#0044aa">
      <path
         inkscape:connector-curvature="0"
         d="m 0,0 -0.047,-1.526 0.024,-1.746 -0.074,-1.624 0.05,-1.528 C 0,-7.199 -0.363,-7.999 -0.726,-7.974 l -1.771,0.097 c -0.047,0.023 -0.168,0 -0.313,-0.024 -0.316,-0.073 -0.365,-0.098 -0.947,-0.098 -0.631,0 -0.969,0.292 -0.969,0.824 0,0.291 0.025,0.656 0.072,1.165 0.05,0.411 0.072,0.92 0.072,1.502 0,0.339 -0.022,0.824 -0.022,1.381 -0.025,0.39 -0.025,0.752 -0.05,1.14 l 0,0.75 c 0,0.34 0,0.607 0.025,0.826 0.025,0.315 0.047,0.679 0.047,0.993 0.05,0.509 0.05,0.584 0.05,0.679 0,0.777 -0.363,1.309 -0.872,1.309 -0.56,0 -0.73,-0.338 -0.826,-1.866 l -0.122,-1.381 0.05,-2.351 c 0.025,-0.073 0,-0.244 -0.025,-0.439 -0.047,-0.507 -0.073,-0.92 -0.073,-1.477 0,-0.341 0.048,-0.898 0.098,-1.528 0,-0.242 0.025,-0.459 0.025,-0.63 0,-0.558 -0.291,-0.92 -0.752,-0.92 -0.146,0 -0.34,0.023 -0.58,0.048 -0.22,0.023 -0.413,0.048 -0.607,0.048 -0.363,0 -0.873,-0.025 -1.48,-0.073 l -0.412,0 c -0.46,0 -0.798,0.316 -0.798,0.704 l 0.069,3.247 c 0,0.17 -0.022,0.411 -0.047,0.679 -0.047,0.316 -0.047,0.557 -0.047,0.679 l 0.169,3.588 0,2.424 0.022,0.922 c 0,0.097 0,0.218 -0.022,0.654 0,0.145 -0.025,0.291 -0.025,0.436 -0.025,0.314 -0.025,0.461 -0.025,0.897 0,0.85 0.341,1.309 0.948,1.236 L -9.089,7.42 c 0.12,-0.025 0.169,-0.025 0.46,-0.025 0.147,0 0.363,0.025 0.484,0.025 0.242,0.024 0.486,0.024 0.751,0.047 0.341,0.025 0.389,0.025 0.485,0.025 0.266,0 0.487,-0.169 0.509,-0.436 0.048,-0.267 0.123,-0.365 0.244,-0.365 0.047,0 0.097,0.024 0.17,0.074 0.969,0.655 1.501,0.824 2.376,0.824 1.164,0 2.277,-0.533 2.834,-1.407 C -0.338,5.503 0.074,4.316 0.049,3.71 L 0,1.382"
         style="fill:#0044aa;fill-opacity:1;fill-rule:nonzero;stroke:none"
         id="path3167" />
    </g>
    <g
       id="g3169"
       transform="matrix(1.25,0,0,-1.25,215.82334,83.424131)"
       style="fill:#0044aa">
      <path
         inkscape:connector-curvature="0"
         d="m 0,0 c 0.022,1.358 0.094,1.819 0.46,3.031 0.485,1.648 0.969,2.35 2.158,3.201 0.969,0.7 2.107,1.017 3.539,1.017 1.254,0 1.575,-0.193 1.575,-0.994 0,-0.194 0,-0.412 -0.02,-0.63 C 7.681,5.139 7.661,4.8 7.661,4.557 L 7.712,3.37 C 7.732,2.57 7.411,2.231 6.688,2.231 L 6.347,2.255 c -1.111,0 -1.671,-0.946 -1.646,-2.908 l 0,-0.389 c 0,-1.066 0.1,-1.48 0.51,-1.988 0.414,-0.51 0.725,-0.678 1.257,-0.678 l 0.441,0 c 0.482,0 0.772,-0.291 0.772,-0.801 0,-0.12 0,-0.242 -0.02,-0.411 -0.05,-0.388 -0.05,-0.776 -0.05,-1.164 l 0.02,-1.382 c 0.03,-0.727 -0.361,-1.066 -1.254,-1.066 -0.321,0 -1.045,0.024 -1.87,0.071 -0.873,0.05 -2.061,0.511 -2.664,1.091 -0.535,0.487 -1.021,1.359 -1.555,2.789 -0.266,0.752 -0.338,1.381 -0.313,3.103"
         style="fill:#0044aa;fill-opacity:1;fill-rule:nonzero;stroke:none"
         id="path3171" />
    </g>
    <g
       id="g3173"
       transform="matrix(1.25,0,0,-1.25,240.12084,92.361631)"
       style="fill:#0044aa">
      <path
         inkscape:connector-curvature="0"
         d="m 0,0 c 0.02,-0.535 -0.271,-0.85 -0.943,-1.018 -0.772,-0.195 -0.973,-0.244 -1.815,-0.293 -0.321,-0.023 -0.582,-0.023 -1.124,-0.047 -0.481,-0.024 -0.602,-0.024 -0.742,-0.024 -1.675,0 -3.25,0.339 -3.862,0.847 -0.552,0.461 -1.163,0.994 -1.404,1.31 -0.241,0.242 -0.391,0.534 -0.602,1.187 -0.391,1.091 -0.411,1.334 -0.512,2.739 l -0.1,1.357 0.07,1.746 c 0.03,0.534 0.05,1.068 0.081,1.601 0.07,1.333 0.672,2.546 1.715,3.418 0.902,0.776 2.477,1.309 3.902,1.309 1.585,0 3.3,-0.63 4.172,-1.552 0.923,-0.921 1.475,-2.544 1.475,-4.217 0,-0.266 0,-0.486 -0.02,-0.825 C 0.271,7.418 0.271,7.32 0.271,7.271 L 0.291,5.962 C 0.291,5.696 0.201,5.431 0.02,5.163 -0.191,4.872 -0.482,4.653 -0.672,4.653 l -1.144,0.048 c -0.03,0 -0.17,0 -0.632,-0.048 -0.12,0 -0.291,-0.025 -0.411,-0.025 -0.14,-0.023 -0.311,-0.023 -0.511,-0.023 -0.241,0 -0.482,0 -0.703,0.023 -0.29,0.025 -0.581,0.05 -0.872,0.05 -0.391,0.023 -0.431,0.023 -0.602,0.023 -0.532,0 -0.953,-0.291 -0.953,-0.703 0,-0.75 0.492,-1.381 1.244,-1.6 0.461,-0.143 0.943,-0.217 1.404,-0.217 0.632,0 1.505,0.121 1.745,0.242 l 0.823,0.363 C -1.113,2.86 -0.943,2.908 -0.772,2.908 -0.341,2.908 0,2.472 0,1.89 L -0.02,0.896 0,0 z m -4.213,9.452 c -0.03,0.68 -0.562,1.239 -1.193,1.239 -0.462,0 -0.823,-0.291 -0.994,-0.801 L -6.52,9.452 C -6.66,8.968 -6.69,8.847 -6.69,8.556 c 0,-0.63 0.19,-0.848 0.772,-0.848 l 0.582,0 c 0.1,0 0.2,0.025 0.22,0 l 0.392,0 c 0.31,-0.025 0.551,0.241 0.531,0.557 l 0,0.582"
         style="fill:#0044aa;fill-opacity:1;fill-rule:nonzero;stroke:none"
         id="path3175" />
    </g>
    <g
       id="g3177"
       transform="matrix(1.25,0,0,-1.25,250.79084,82.090381)"
       style="fill:#0044aa">
      <path
         inkscape:connector-curvature="0"
         d="M 0,0 C 0.923,-0.534 0.823,-0.461 1.625,-1.479 2.006,-2.013 2.126,-2.255 2.277,-2.837 2.397,-3.32 2.468,-3.903 2.468,-4.46 2.468,-5.189 2.397,-5.456 2.006,-6.4 1.525,-7.587 1.254,-7.951 0.411,-8.533 -0.682,-9.26 -1.846,-9.576 -3.621,-9.576 c -1.404,0 -2.157,0.122 -3.069,0.509 -0.582,0.266 -0.733,0.461 -0.733,0.995 l -0.02,1.115 -0.03,1.406 c -0.02,0.849 0.321,1.212 1.073,1.212 0.161,0 0.241,0 0.672,-0.194 0.462,-0.194 1.024,-0.29 1.676,-0.29 0.802,0 1.193,0.241 1.193,0.751 0,0.46 -0.271,0.727 -1.244,1.235 -0.942,0.509 -1.574,0.994 -2.277,1.77 -0.631,0.656 -0.892,1.602 -0.892,2.934 0,1.018 0.261,1.77 1.033,2.957 0.732,1.091 2.016,1.527 4.363,1.527 l 0.753,0 L 0.02,6.279 C 0.531,6.254 0.843,6.181 1.013,6.084 1.284,5.915 1.474,5.601 1.474,5.285 c 0,-0.12 0,-0.243 -0.02,-0.436 -0.03,-0.194 -0.03,-0.436 -0.03,-0.704 0,-0.315 0,-0.702 0.05,-1.163 0,-0.145 0.031,-0.291 0.031,-0.363 0,-0.51 -0.422,-0.923 -0.903,-0.923 -0.191,0 -0.241,0.025 -0.823,0.291 -0.461,0.196 -0.822,0.291 -1.113,0.291 -0.512,0 -0.823,-0.266 -0.823,-0.655 0,-0.241 0.141,-0.459 0.412,-0.629 L -1.073,0.63"
         style="fill:#0044aa;fill-opacity:1;fill-rule:nonzero;stroke:none"
         id="path3179" />
    </g>
    <g
       id="g3181"
       transform="matrix(1.25,0,0,-1.25,98.280837,101.79163)"
       style="fill:#0044aa">
      <path
         inkscape:connector-curvature="0"
         d="m 0,0 c 0,0 -0.944,-2.16 -1.284,-2.792 0,0 -1.231,0.997 -2.928,0.829 -1.955,-0.189 -7.038,-1.676 -8.739,-8.671 -0.83,-3.427 0.287,-10.327 8.308,-12.373 3.73,-0.983 7.139,-0.809 10.283,-0.221 0,0 -11.088,-4.571 -18.465,1.264 -3.67,3.208 -3.909,6.439 -4.021,8.532 -0.173,3.133 1.421,7.259 6.168,10.538 C -4.954,1.059 -0.233,-0.076 0,0"
         style="fill:#0044aa;fill-opacity:1;fill-rule:nonzero;stroke:none"
         id="path3183" />
    </g>
    <g
       id="g3185"
       transform="matrix(1.25,0,0,-1.25,95.560837,121.37538)"
       style="fill:#0044aa">
      <path
         inkscape:connector-curvature="0"
         d="M 0,0 C 0,0 4.734,0.371 6.317,4.522 6.788,5.985 6.567,7.259 5.425,7.761 4.281,8.262 1.796,8.061 -0.261,6.627 -2.315,5.194 -3.549,3.309 -3.699,1.142 c 0,0 -0.582,-6.232 6.139,-5.566 0,0 2.313,0.121 4.468,1.616 0,0 -5.805,-1.471 -7.809,1.524 -0.573,0.934 -1.213,3.113 0.039,5.23 C -0.033,5.47 1.343,6.361 2.106,6.671 2.87,6.983 3.95,7.04 4.021,6.186 4.092,5.334 4.161,3.701 0,0"
         style="fill:#0044aa;fill-opacity:1;fill-rule:nonzero;stroke:none"
         id="path3187" />
    </g>
    <g
       id="g3189"
       transform="matrix(1.25,0,0,-1.25,134.26334,121.37538)"
       style="fill:#0044aa">
      <path
         inkscape:connector-curvature="0"
         d="M 0,0 C 0,0 4.733,0.371 6.316,4.522 6.787,5.985 6.565,7.259 5.424,7.761 4.279,8.262 1.793,8.061 -0.262,6.627 -2.316,5.194 -3.551,3.309 -3.7,1.142 c 0,0 -0.582,-6.232 6.137,-5.566 0,0 2.316,0.121 4.469,1.616 0,0 -5.805,-1.471 -7.81,1.524 -0.571,0.934 -1.212,3.113 0.04,5.23 0.83,1.524 2.207,2.415 2.969,2.725 C 2.866,6.983 3.95,7.04 4.019,6.186 4.09,5.334 4.16,3.701 0,0"
         style="fill:#0044aa;fill-opacity:1;fill-rule:nonzero;stroke:none"
         id="path3191" />
    </g>
    <g
       id="g3193"
       transform="matrix(1.25,0,0,-1.25,107.29959,111.71913)"
       style="fill:#0044aa">
      <path
         inkscape:connector-curvature="0"
         d="m 0,0 c 0,0 0.223,-0.538 0.003,-1.709 -0.22,-1.175 -1.514,-7.487 -2.316,-9.772 0,0 2.22,0.091 3.429,-0.009 0,-0.005 1.016,5.844 1.718,7.428 0.342,0.832 0.619,1.319 0.989,1.762 0.372,0.44 1.224,1.165 2.387,0.76 1.162,-0.399 0.247,-2.91 0.247,-2.91 0,0 -0.91,-2.873 -1.201,-4.349 -0.119,-0.736 -0.365,-1.711 -0.19,-2.204 0.161,-0.445 0.459,-0.773 1.11,-0.934 0.651,-0.161 1.733,-0.034 2.104,0.078 0.371,0.107 0.743,0.325 0.917,0.459 0.517,0.4 0.75,1.026 0.75,1.026 0,0 -0.717,-0.454 -1.181,-0.396 -0.347,0.047 -0.622,0.312 -0.602,0.643 0.029,0.488 0.887,3.951 1.08,4.722 0.195,0.768 0.629,2.383 0.568,3.24 C 9.752,-1.309 9.278,0.122 7.133,0.141 5.802,0.17 4.465,-0.594 4.465,-0.594 c 0,0 -0.461,-0.232 -0.809,-0.487 C 3.662,-1.074 3.882,0 3.882,0"
         style="fill:#0044aa;fill-opacity:1;fill-rule:nonzero;stroke:none"
         id="path3195" />
    </g>
    <g
       id="g3197"
       transform="matrix(1.25,0,0,-1.25,124.05959,108.81038)"
       style="fill:#0044aa">
      <path
         inkscape:connector-curvature="0"
         d="m 0,0 c 0,0 0.252,-0.268 -0.1,-2.012 -0.35,-1.744 -1.594,-7.039 -1.795,-7.94 -0.201,-0.902 -0.388,-2.04 -0.417,-2.32 -0.03,-0.282 -0.107,-0.963 0.121,-1.321 0.425,-0.677 1.62,-0.778 2.579,-0.712 2,0.141 2.901,1.828 2.901,1.828 0,0 -0.543,-0.423 -0.969,-0.456 -0.427,-0.034 -1.103,0.188 -1.096,0.821 0.006,0.636 0.207,2.102 0.419,3.142 0.444,2.144 0.911,4.146 1.226,5.135 0.109,0.347 0.192,0.58 0.192,0.58 0,0 0.98,0.061 1.983,0.015 0,-0.005 0.401,-0.027 0.401,-0.027 0,0 0.09,0.037 0.13,0.208 0.021,0.091 0.049,0.225 0.04,0.626 -0.011,0.175 -0.648,0.15 -0.648,0.15 l -1.67,0.018 c 0,0 0.341,1.082 0.578,2.168 C 3.875,-0.101 3.404,0.027 0,0"
         style="fill:#0044aa;fill-opacity:1;fill-rule:nonzero;stroke:none"
         id="path3199" />
    </g>
    <g
       id="g3201"
       transform="matrix(1.25,0,0,-1.25,146.22334,111.53288)"
       style="fill:#0044aa">
      <path
         inkscape:connector-curvature="0"
         d="m 0,0 c 0,0 0.201,-0.706 0.026,-1.584 -0.175,-0.878 -0.813,-4.084 -1.082,-5.037 -0.273,-0.953 -1.104,-4.551 -1.263,-4.853 0.018,0 2.004,0.089 3.438,0 -0.006,0.005 0.735,3.293 1.15,4.388 0,0 0.8,2.623 2.275,3.843 0,0 1.227,1.089 2.916,1.059 0,0 0.432,1.321 0.582,2.502 0,-0.006 -1.427,-0.262 -2.6,-0.999 -1.172,-0.735 -2.007,-1.86 -2.007,-1.86 0,0 0.405,2.277 0.441,2.552 C 3.88,0.011 0.741,0.056 0,0"
         style="fill:#0044aa;fill-opacity:1;fill-rule:nonzero;stroke:none"
         id="path3203" />
    </g>
    <g
       id="g3205"
       transform="matrix(1.25,0,0,-1.25,190.30834,111.76413)"
       style="fill:#0044aa">
      <path
         inkscape:connector-curvature="0"
         d="m 0,0 c 0,0 0.2,-0.705 0.025,-1.583 -0.177,-0.878 -0.814,-4.084 -1.083,-5.037 -0.271,-0.951 -1.105,-4.551 -1.263,-4.852 0.02,0 2.006,0.089 3.437,0 -0.005,0.005 0.735,3.292 1.15,4.389 0,0 0.8,2.625 2.277,3.842 0,0 1.225,1.09 2.914,1.057 0,0 0.432,1.325 0.582,2.503 0,-0.004 -1.427,-0.262 -2.601,-0.999 -1.175,-0.735 -2.006,-1.86 -2.006,-1.86 0,0 0.405,2.278 0.441,2.553 C 3.879,0.013 0.74,0.057 0,0"
         style="fill:#0044aa;fill-opacity:1;fill-rule:nonzero;stroke:none"
         id="path3207" />
    </g>
    <g
       id="g3209"
       transform="matrix(1.25,0,0,-1.25,159.10459,129.16038)"
       style="fill:#0044aa">
      <path
         inkscape:connector-curvature="0"
         d="m 0,0 4.319,18.539 c 0,0 5.484,1.063 4.803,-3.227 -0.421,-2.707 -2.144,-4.794 -2.144,-4.794 0,0 -1.872,-2.647 -4.05,-3.608 0,0 5.452,1.149 8.114,5.187 1.589,2.612 0.908,4.517 0.908,4.517 0,0 -0.307,2.595 -4.825,3.196 -2.715,0.388 -6.336,0.059 -6.336,0.059 0,0 0.288,-0.887 0.07,-1.945 -0.216,-1.059 -0.911,-3.666 -0.911,-3.666 L -1.18,9.701 -2.908,2.428 -3.883,-1.663"
         style="fill:#0044aa;fill-opacity:1;fill-rule:nonzero;stroke:none"
         id="path3211" />
    </g>
    <g
       id="g3213"
       transform="matrix(1.25,0,0,-1.25,187.86459,111.43288)"
       style="fill:#0044aa">
      <path
         inkscape:connector-curvature="0"
         d="m 0,0 c 0,0 -3.338,0.277 -5.967,-0.393 -2.626,-0.672 -3.606,-1.416 -3.606,-1.416 0,0 -1.455,-0.811 -2.388,-2.155 -0.933,-1.343 -1.042,-2.728 -1.061,-3.519 -0.022,-0.792 0.269,-2.599 1.751,-3.612 1.188,-0.814 2.77,-0.682 2.77,-0.682 0,0 0.955,0.009 1.603,0.353 0.465,0.249 0.945,0.662 0.945,0.662 l -0.371,-1.015 c 0.003,-0.001 3.456,-0.015 3.947,0.033 -0.008,0.006 -0.244,0.472 -0.164,0.957 0.08,0.489 1.12,4.768 1.12,4.768 L -0.2,-0.785 0,0 z m -5.524,-9.158 c 0,0 -1.47,-1.001 -3.022,-0.947 -1.551,0.052 -1.779,2.16 -1.779,2.16 0,0 -0.426,2.758 1.425,4.817 1.853,2.06 5.055,1.986 5.055,1.986 -0.615,-4.817 -1.679,-8.016 -1.679,-8.016"
         style="fill:#0044aa;fill-opacity:1;fill-rule:nonzero;stroke:none"
         id="path3215" />
    </g>
    <g
       id="g3217"
       transform="matrix(1.25,0,0,-1.25,212.16709,110.87413)"
       style="fill:#0044aa">
      <path
         inkscape:connector-curvature="0"
         d="m 0,0 c 0,0 -2.28,1.283 -5.393,0.041 -3.001,-1.195 -4.532,-3.498 -5.136,-5.355 -0.365,-1.122 -1.689,-5.168 2.086,-8.221 3.222,-2.607 8.324,-0.861 9.764,0 0,0 -2.977,-1.24 -6.354,0.362 -4.892,2.316 -3.809,7.739 -2.048,10.2 1.662,2.315 3.904,1.937 3.904,1.937 0,0 1.34,0.006 2.092,-1.27 0,0 0.708,1.985 1.085,2.306"
         style="fill:#0044aa;fill-opacity:1;fill-rule:nonzero;stroke:none"
         id="path3219" />
    </g>
    <g
       id="g3221"
       transform="matrix(1.25,0,0,-1.25,222.33334,112.09788)"
       style="fill:#0044aa">
      <path
         inkscape:connector-curvature="0"
         d="M 0,0 C 0,0 -1.335,2.116 -4.371,1.886 -5.784,1.778 -6.795,0.823 -7.144,0.063 c -0.523,-1.129 -0.726,-2.408 0.153,-3.835 0.487,-0.792 3.179,-3.969 3.678,-4.545 0.842,-0.978 0.462,-2.768 -1.474,-2.399 -1.927,0.368 -2.783,2.132 -2.783,2.132 0,0 -0.488,-1.406 -0.981,-2.131 0,0 1.549,-1.456 3.662,-1.687 2.986,-0.322 4.06,1.371 4.06,1.371 0,0 1.557,2.084 -0.913,5.042 -1.167,1.404 -2.48,2.709 -3.017,3.482 -1.114,1.61 -0.216,3.469 1.493,2.968 1.429,-0.421 2.025,-2.576 2.025,-2.576 0,0 0.92,0.965 1.241,2.115"
         style="fill:#0044aa;fill-opacity:1;fill-rule:nonzero;stroke:none"
         id="path3223" />
    </g>
  </g>
</svg>
